<svg width="23" height="23" viewBox="0 0 23 23" fill="none" xmlns="http://www.w3.org/2000/svg">
<path d="M21.5548 16.7365V19.7365C21.5559 20.015 21.4989 20.2907 21.3873 20.5459C21.2757 20.801 21.1121 21.0301 20.9069 21.2184C20.7017 21.4066 20.4594 21.55 20.1956 21.6392C19.9317 21.7284 19.6522 21.7616 19.3748 21.7365C16.2976 21.4021 13.3418 20.3506 10.7448 18.6665C8.32863 17.1312 6.28014 15.0827 4.7448 12.6665C3.05478 10.0577 2.00305 7.0875 1.6748 3.9965C1.64981 3.71997 1.68268 3.44126 1.7713 3.17813C1.85993 2.91499 2.00237 2.67319 2.18957 2.46812C2.37676 2.26306 2.60461 2.09921 2.85859 1.98703C3.11258 1.87484 3.38714 1.81676 3.6648 1.8165H6.6648C7.15011 1.81173 7.6206 1.98358 7.98857 2.30004C8.35654 2.61649 8.59688 3.05595 8.6648 3.5365C8.79143 4.49657 9.02625 5.43923 9.3648 6.3465C9.49935 6.70443 9.52847 7.09342 9.44871 7.46738C9.36895 7.84135 9.18367 8.18461 8.9148 8.4565L7.6448 9.7265C9.06836 12.23 11.1413 14.3029 13.6448 15.7265L14.9148 14.4565C15.1867 14.1876 15.53 14.0024 15.9039 13.9226C16.2779 13.8428 16.6669 13.872 17.0248 14.0065C17.9321 14.3451 18.8747 14.5799 19.8348 14.7065C20.3206 14.775 20.7642 15.0197 21.0813 15.394C21.3985 15.7683 21.567 16.2461 21.5548 16.7365Z" stroke="black" stroke-width="2" stroke-linecap="round" stroke-linejoin="round"/>
</svg>
