<svg width="19" height="23" viewBox="0 0 19 23" fill="none" xmlns="http://www.w3.org/2000/svg">
<path d="M17.6667 9.81641C17.6667 14.8094 12.1277 20.0094 10.2677 21.6154C10.0944 21.7457 9.88349 21.8162 9.66669 21.8162C9.44989 21.8162 9.23896 21.7457 9.06569 21.6154C7.20569 20.0094 1.66669 14.8094 1.66669 9.81641C1.66669 7.69467 2.50954 5.65984 4.00983 4.15955C5.51012 2.65926 7.54496 1.81641 9.66669 1.81641C11.7884 1.81641 13.8233 2.65926 15.3235 4.15955C16.8238 5.65984 17.6667 7.69467 17.6667 9.81641Z" stroke="black" stroke-width="2" stroke-linecap="round" stroke-linejoin="round"/>
<path d="M9.66669 12.8164C11.3235 12.8164 12.6667 11.4733 12.6667 9.81641C12.6667 8.15955 11.3235 6.81641 9.66669 6.81641C8.00983 6.81641 6.66669 8.15955 6.66669 9.81641C6.66669 11.4733 8.00983 12.8164 9.66669 12.8164Z" stroke="black" stroke-width="2" stroke-linecap="round" stroke-linejoin="round"/>
</svg>
